<svg class="svg-icon" style="width: 1em; height: 1em;vertical-align: middle;fill: currentColor;overflow: hidden;" viewBox="0 0 1024 1024" version="1.1" xmlns="http://www.w3.org/2000/svg"><path d="M669.536 608H416a32 32 0 0 1 0-64h284.832c2.112-10.24 3.168-20.864 3.168-32 0-62.816-35.36-111.456-106.496-155.84a32 32 0 0 1 33.92-54.304C719.424 356.8 768 423.584 768 512c0 104.288-59.616 171.968-179.776 234.56 21.952 9.344 42.816 18.176 51.072 21.856C726.912 807.68 768 840.992 768 896a32 32 0 0 1-64 0c0-18.976-26.176-40.192-90.88-69.152-14.56-6.528-73.664-31.264-102.72-43.744-27.808 11.904-78.944 33.504-93.152 39.904C348.416 853.856 320 876.448 320 896a32 32 0 0 1-64 0c0-56 42.816-90.048 135.04-131.392 18.24-8.192 91.36-38.976 108.032-46.336 82.112-36.288 138.016-70.72 170.464-110.272zM323.168 480c-2.112 10.24-3.168 20.864-3.168 32 0 62.816 35.36 111.456 106.496 155.84a32 32 0 0 1-33.92 54.304C304.576 667.2 256 600.416 256 512c0-103.808 59.04-171.328 178.112-233.728-19.712-8.416-38.08-16.32-46.176-19.968C298.08 217.664 256 183.68 256 128a32 32 0 1 1 64 0c0 19.552 27.424 41.76 94.304 72 14.88 6.72 69.12 29.696 97.248 41.792 27.232-11.712 80.64-34.24 95.2-40.8C675.584 170.144 704 147.552 704 128a32 32 0 0 1 64 0c0 56-42.816 90.048-135.04 131.392-16.992 7.648-81.568 34.88-103.84 44.512a32.192 32.192 0 0 1-8.704 3.84c-79.68 35.552-134.112 69.44-165.952 108.256H608a32 32 0 0 1 0 64H323.168z" fill="#2BBFD6" /></svg>