<?xml version="1.0" encoding="utf-8"?>
<!-- Generator: Adobe Illustrator 22.1.0, SVG Export Plug-In . SVG Version: 6.00 Build 0)  -->
<svg version="1.1" id="图层_1" xmlns="http://www.w3.org/2000/svg" xmlns:xlink="http://www.w3.org/1999/xlink" x="0px" y="0px"
	 viewBox="0 0 850.4 56.7" style="enable-background:new 0 0 850.4 56.7;" xml:space="preserve">
<g>
	<g>
		<path d="M31.9,9.8l8.6,28.9l8.1-28.9h9.1l8.1,28.9l8.6-28.9h8.4L70.4,48.2h-9.3l-8-27.7l-8,27.7h-9.3L23.4,9.8H31.9z"/>
		<path d="M83.7,48.2L99.6,9.8h9.4l15.9,38.4h-9.6l-3.7-8.9H97l-3.7,8.9H83.7z M104.4,19.1l-5.5,13.4h10.9L104.4,19.1z"/>
		<path d="M128.9,48.2v-6.9h17.6c2.8,0,4.7-0.3,5.6-0.8c1.3-0.8,2-2,2-3.6c0-1.9-0.8-3.2-2.4-4.1c-0.9-0.5-2.3-0.7-4.3-0.7h-7.1
			c-4.3,0-7.5-0.8-9.4-2.4c-1.2-1-2.1-2.2-2.8-3.7c-0.7-1.5-1-3.1-1-4.8c0-2.7,0.8-5.1,2.4-7.4c1.5-2.2,4-3.4,7.4-3.8
			c1.2-0.1,2.9-0.2,5.1-0.2h19.1v6.9h-17.2c-2.6,0-4.3,0.2-5.1,0.3c-1.7,0.4-2.6,1.7-2.6,3.9c0,1.8,0.7,3.1,2.2,3.7
			c1,0.5,2.6,0.7,4.8,0.7h6.2c3.1,0,5.5,0.3,7,0.8c2.7,0.9,4.6,2.5,5.6,4.8c0.8,1.8,1.2,3.8,1.2,5.9c0,2.3-0.5,4.4-1.6,6.3
			c-1.5,2.6-3.7,4.2-6.7,4.7c-1.5,0.2-3.7,0.3-6.6,0.3H128.9z"/>
		<path d="M200.3,9.8v38.4h-8.1V32.3h-14.9v15.9h-8.2V9.8h8.2v15.7h14.9V9.8H200.3z"/>
		<path d="M215.8,9.8v23c0,1.8,0.2,3.3,0.5,4.3c0.3,1,0.8,1.9,1.6,2.6c1.6,1.6,3.9,2.4,6.7,2.4c1.8,0,3.4-0.3,4.8-1
			c1.4-0.6,2.3-1.5,2.9-2.6c0.5-1.1,0.8-3,0.8-5.8v-23h8.2v22.6c0,3-0.3,5.5-1,7.4c-0.6,1.9-1.6,3.5-2.9,4.7c-3,2.7-7.3,4-12.9,4
			c-6,0-10.3-1.3-13-3.9c-1.4-1.3-2.4-2.9-2.9-4.5c-0.5-1.7-0.8-4-0.8-7.1V9.8H215.8z"/>
		<path d="M285.6,33.7v14.6h-8.2V9.8h18.8c5.4,0,9.1,0.7,11.2,2.1c1.5,0.9,2.6,2.1,3.4,3.7c0.8,1.5,1.2,3.2,1.2,5
			c0,3.7-0.9,6.5-2.8,8.5c-1.2,1.2-2.7,2.1-4.6,2.7c1.5,0.5,2.6,1.1,3.4,1.7c0.8,0.6,1.5,1.5,2.1,2.6c0.5,0.9,0.8,1.8,1,2.7
			c0.2,0.8,0.4,2.1,0.5,3.7c0.2,2.8,0.5,4.7,0.9,5.8h-9.2c-0.3-0.9-0.6-2.7-0.9-5.5c-0.2-2.2-0.6-3.9-1.2-5.1
			c-0.6-1.2-1.5-2.1-2.7-2.8c-1.5-0.8-3.7-1.2-6.5-1.2H285.6z M285.6,26.8h11.5c1.9,0,3.3-0.3,4.1-0.9c1.2-0.8,1.8-2.3,1.8-4.4
			c0-2.3-0.9-3.8-2.8-4.5c-0.7-0.2-1.7-0.3-3.2-0.3h-11.5V26.8z"/>
		<path d="M347.4,9.8v6.9h-10.7c-2.8,0-4.8,0.2-6.1,0.6c-1.3,0.4-2.3,1.1-3.2,2.2c-0.6,0.8-1,1.5-1.2,2.3c-0.2,0.8-0.4,2.1-0.5,3.9
			h21.6v6.9h-21.6c0.3,3.3,1.3,5.6,2.9,6.9c1.7,1.3,4.5,1.9,8.4,1.9h10.3v6.9h-10.7c-2.9,0-5.4-0.2-7.6-0.5
			c-3.5-0.6-6.2-2.1-8.2-4.6c-2.9-3.5-4.4-8.3-4.4-14.3c0-6.7,2.1-11.9,6.2-15.6c1.4-1.3,2.9-2.2,4.5-2.7c1.6-0.5,3.7-0.7,6.4-0.7
			H347.4z"/>
		<path d="M362,34.8v13.4h-8.2V9.8H373c3.5,0,6,0.3,7.5,0.7c2.5,0.8,4.5,2.6,6,5.2c1.1,2,1.6,4.2,1.6,6.5c0,2-0.4,3.8-1.1,5.6
			c-0.7,1.7-1.7,3.2-3,4.3c-1.2,1-2.4,1.7-3.7,2.1c-1.3,0.4-3,0.6-5.3,0.6H362z M362,28h11.1c2,0,3.4-0.3,4.2-0.9
			c1.2-1,1.8-2.6,1.8-5c0-2.6-0.9-4.2-2.7-5c-0.7-0.3-1.7-0.4-3.1-0.4H362V28z"/>
		<path d="M422.1,9.8v6.9h-10.7c-2.8,0-4.8,0.2-6,0.6c-1.3,0.4-2.3,1.1-3.2,2.2c-0.6,0.8-1,1.5-1.2,2.3c-0.2,0.8-0.4,2.1-0.5,3.9
			h21.6v6.9h-21.6c0.3,3.3,1.3,5.6,2.9,6.9c1.7,1.3,4.5,1.9,8.4,1.9h10.3v6.9h-10.7c-2.9,0-5.4-0.2-7.6-0.5
			c-3.5-0.6-6.2-2.1-8.2-4.6c-2.9-3.5-4.4-8.3-4.4-14.3c0-6.7,2.1-11.9,6.2-15.6c1.4-1.3,2.9-2.2,4.5-2.7c1.6-0.5,3.7-0.7,6.4-0.7
			H422.1z"/>
		<path d="M424.9,48.2l15.9-38.4h9.4l15.9,38.4h-9.6l-3.7-8.9h-14.6l-3.7,8.9H424.9z M445.5,19.1L440,32.5H451L445.5,19.1z"/>
		<path d="M478.7,16.7h-12.2V9.8h33.1v6.9h-12.7v31.6h-8.2V16.7z"/>
		<path d="M532.7,48.2V9.8h21.7c3.4,0,5.9,0.4,7.4,1.2c1.8,0.9,3.2,2.4,4.1,4.4c0.7,1.4,1,2.9,1,4.4c0,2-0.5,3.9-1.6,5.6
			c-1.1,1.7-2.4,2.9-4,3.6c3.7,1.7,5.6,4.7,5.6,9c0,2.5-0.6,4.6-1.8,6.3c-1,1.5-2.4,2.5-4,3c-1.6,0.6-4,0.8-7.2,0.8H532.7z
			 M540.8,25.6H552c1.2,0,2-0.1,2.6-0.2c0.5-0.1,1-0.4,1.5-0.7c1.2-0.9,1.8-2.2,1.8-3.8c0-1.5-0.6-2.7-1.7-3.4
			c-0.8-0.5-2.2-0.8-4-0.8h-11.3V25.6z M540.8,41.4H552c1.2,0,2.1-0.1,2.6-0.2c0.5-0.1,1-0.4,1.5-0.7c1.2-0.9,1.8-2.2,1.8-3.8
			c0-1.5-0.6-2.7-1.7-3.4c-0.8-0.5-2.2-0.8-4-0.8h-11.3V41.4z"/>
		<path d="M581.1,33.7v14.6h-8.2V9.8h18.8c5.4,0,9.1,0.7,11.2,2.1c1.5,0.9,2.6,2.1,3.4,3.7c0.8,1.5,1.2,3.2,1.2,5
			c0,3.7-0.9,6.5-2.8,8.5c-1.2,1.2-2.7,2.1-4.6,2.7c1.5,0.5,2.6,1.1,3.4,1.7c0.8,0.6,1.5,1.5,2.1,2.6c0.5,0.9,0.8,1.8,1,2.7
			c0.2,0.8,0.4,2.1,0.5,3.7c0.2,2.8,0.5,4.7,0.9,5.8h-9.2c-0.3-0.9-0.6-2.7-0.9-5.5c-0.2-2.2-0.6-3.9-1.2-5.1
			c-0.6-1.2-1.5-2.1-2.7-2.8c-1.5-0.8-3.7-1.2-6.5-1.2H581.1z M581.1,26.8h11.5c1.9,0,3.3-0.3,4.1-0.9c1.2-0.8,1.8-2.3,1.8-4.4
			c0-2.3-0.9-3.8-2.8-4.5c-0.7-0.2-1.7-0.3-3.2-0.3h-11.5V26.8z"/>
		<path d="M630.9,9.6c3.8,0,7.2,0.7,10.1,2c3.4,1.6,5.8,4.2,7.2,7.9c1.1,2.9,1.6,6.3,1.6,10.1c0,3.9-0.7,7.3-2,10.2
			c-1.7,3.4-4.2,5.8-7.6,7.2c-2.5,1-5.5,1.5-8.8,1.5c-4.3,0-8.1-0.8-11.3-2.4c-2.7-1.3-4.7-3.5-6.2-6.3c-1.4-2.9-2.1-6.4-2.1-10.5
			c0-7.3,1.8-12.6,5.5-15.7C620.5,10.9,625,9.6,630.9,9.6z M631,16c-3.8,0-6.5,1.2-8.1,3.7c-1.3,1.9-2,5-2,9.3
			c0,4.5,0.8,7.8,2.4,9.9C625,41,627.5,42,631,42c3.4,0,5.9-1.1,7.5-3.2c1.6-2.1,2.4-5.4,2.4-9.8c0-4-0.7-7.1-2-9.2
			C637.4,17.3,634.8,16.1,631,16z"/>
		<path d="M660.9,9.8l8.6,28.9l8.1-28.9h9.1l8.1,28.9l8.6-28.9h8.4l-12.4,38.4h-9.3l-8-27.7l-8,27.7h-9.3L652.5,9.8H660.9z"/>
		<path d="M716.4,48.2v-6.9h17.6c2.8,0,4.7-0.3,5.6-0.8c1.3-0.8,2-2,2-3.6c0-1.9-0.8-3.2-2.4-4.1c-0.9-0.5-2.3-0.7-4.3-0.7h-7.1
			c-4.3,0-7.5-0.8-9.4-2.4c-1.2-1-2.1-2.2-2.8-3.7c-0.7-1.5-1-3.1-1-4.8c0-2.7,0.8-5.1,2.4-7.4c1.5-2.2,4-3.4,7.4-3.8
			c1.2-0.1,2.9-0.2,5.1-0.2h19.1v6.9h-17.2c-2.6,0-4.3,0.2-5.1,0.3c-1.7,0.4-2.6,1.7-2.6,3.9c0,1.8,0.7,3.1,2.2,3.7
			c1,0.5,2.6,0.7,4.8,0.7h6.2c3.1,0,5.5,0.3,7,0.8c2.7,0.9,4.6,2.5,5.6,4.8c0.8,1.8,1.2,3.8,1.2,5.9c0,2.3-0.5,4.4-1.6,6.3
			c-1.5,2.6-3.7,4.2-6.7,4.7c-1.5,0.2-3.7,0.3-6.6,0.3H716.4z"/>
		<path d="M785.4,9.8v6.9h-10.7c-2.8,0-4.8,0.2-6,0.6c-1.3,0.4-2.3,1.1-3.2,2.2c-0.6,0.8-1,1.5-1.2,2.3c-0.2,0.8-0.4,2.1-0.5,3.9
			h21.6v6.9h-21.6c0.3,3.3,1.3,5.6,2.9,6.9c1.7,1.3,4.5,1.9,8.4,1.9h10.3v6.9h-10.7c-2.9,0-5.4-0.2-7.6-0.5
			c-3.5-0.6-6.2-2.1-8.2-4.6c-2.9-3.5-4.4-8.3-4.4-14.3c0-6.7,2.1-11.9,6.2-15.6c1.4-1.3,2.9-2.2,4.5-2.7c1.6-0.5,3.7-0.7,6.4-0.7
			H785.4z"/>
		<path d="M800,33.7v14.6h-8.2V9.8h18.8c5.4,0,9.1,0.7,11.2,2.1c1.5,0.9,2.6,2.1,3.4,3.7c0.8,1.5,1.2,3.2,1.2,5
			c0,3.7-0.9,6.5-2.8,8.5c-1.2,1.2-2.7,2.1-4.6,2.7c1.5,0.5,2.6,1.1,3.4,1.7c0.8,0.6,1.5,1.5,2.1,2.6c0.5,0.9,0.8,1.8,1,2.7
			c0.2,0.8,0.4,2.1,0.5,3.7c0.2,2.8,0.5,4.7,0.9,5.8h-9.2c-0.3-0.9-0.6-2.7-0.9-5.5c-0.2-2.2-0.6-3.9-1.2-5.1
			c-0.6-1.2-1.5-2.1-2.7-2.8c-1.5-0.8-3.7-1.2-6.5-1.2H800z M800,26.8h11.5c1.9,0,3.3-0.3,4.1-0.9c1.2-0.8,1.8-2.3,1.8-4.4
			c0-2.3-0.9-3.8-2.8-4.5c-0.7-0.2-1.7-0.3-3.2-0.3H800V26.8z"/>
	</g>
</g>
</svg>
