<?xml version="1.0" encoding="utf-8"?>
<!-- Generator: Adobe Illustrator 23.0.1, SVG Export Plug-In . SVG Version: 6.00 Build 0)  -->
<svg version="1.1" id="new" xmlns="http://www.w3.org/2000/svg" xmlns:xlink="http://www.w3.org/1999/xlink" x="0px" y="0px"
	 viewBox="0 0 464.5 50.5" style="enable-background:new 0 0 464.5 50.5;" xml:space="preserve">
<style type="text/css">
	.st0{fill-rule:evenodd;clip-rule:evenodd;}
	.st1{fill:#007360;}
	.st2{fill:#E7D1B9;}
	.st3{fill:#BC0A40;}
	.st4{fill-rule:evenodd;clip-rule:evenodd;fill:#007360;}
</style>
<g>
	<path d="M58.08,16.88c0.32-0.05,0.48-0.16,0.48-0.16c0-0.21-0.05-0.26-0.34-0.26c-0.57,0-0.91,0.1-1.47,0.1
		c-0.61,0-1.09-0.07-1.61-0.07c-0.29,0-0.27,0.09-0.27,0.26c0,0.19,0.57,0.07,0.88,0.78c0.18,0.38,0.11,1.18-0.07,1.65L51.33,31.1
		l-1.86-5.29l-0.73-1.93c0,0-0.11,0.05,0.41-1.55l1.02-3.06c0.5-1.51,1-2.3,1.63-2.31c0.8-0.01,0.8-0.49,0.19-0.49
		c-0.61,0-0.98,0.05-1.52,0.05c-0.57,0-0.86-0.05-1.47-0.05c-0.23,0-0.48,0.07-0.45,0.26c0.02,0.19,0.36,0.12,0.61,0.26
		c0.41,0.21,0.68,1.08,0.39,2l-1.2,3.84l-1.36-3.58c-0.27-0.68-0.63-2.18,0.03-2.32c0.63-0.13,0.55-0.46,0.16-0.46
		c-0.75,0-1.14,0.1-1.87,0.1c-0.79,0-1.38-0.1-2.13-0.1c-0.16,0-0.45,0.02-0.36,0.33c0.05,0.19,0.43,0.12,0.66,0.26
		c0.91,0.59,1.09,1.34,1.4,2.19l1.99,5.63c0.36,1.01,0.39,0.64,0.09,1.51l-1.74,4.78l-4.28-12.26c-0.34-0.92-0.52-1.56,0.23-1.91
		c0.32-0.16,0.41-0.2,0.45-0.26c0.04-0.06,0.08-0.28-0.39-0.26c-0.77,0.03-1.25,0.1-2.02,0.1c-0.82,0-1.38-0.1-2.13-0.1
		c-0.25,0-0.29,0.12-0.29,0.31c0,0.28,0.61,0.1,1.13,0.71c0.29,0.33,0.86,1.44,1,1.84l5.17,14.86c0.09,0.22,0.12,0.65,0.42,0.65
		c0.24,0,0.28-0.5,0.37-0.69l2.72-7.46l2.65,7.09c0.11,0.28,0.27,1.06,0.54,1.06c0.23,0,0.31-0.37,0.43-0.72l5.12-14.65
		C56.77,18.27,57.27,17.02,58.08,16.88z"/>
	<path d="M114.92,22.71c-2.83,0-5.02,2.85-5.02,6.19c0,1.7,0.46,3.05,1.23,4.02c-0.27,0.18-0.8,0.6-1.87,0.6
		c-0.93,0-1.47-0.55-1.51-1.74v-7.25c0,0,2.78-0.01,2.94-0.01c0.19,0,0.56-1.25,0.58-1.32c0.03-0.16,0.09-0.28,0.1-0.4
		c0.04-0.24-0.15-0.26-0.32-0.01c-0.14,0.13-0.28,0.48-0.86,0.48h-2.44c0-2.09,0.02-3.04-0.3-3.04c-0.31,0-0.26,0.09-0.55,1.02
		c-0.38,1.25-1.55,1.93-2.28,2.33c-0.33,0.07-0.7,0.1-1.12,0.01c-0.64-0.14-1.39-0.91-3.32-0.91c-2.07,0-3.87,1.69-3.87,3.95
		c0,1.22,0.54,2.39,1.49,3.02c-0.18,0.11-1.33,1.08-1.19,2.22c0,0-0.02,1.18,0.91,1.58c-0.29,0.11-0.58,0.31-0.84,0.55
		c-0.61-0.22-1.5-0.05-1.5-1.65v-4.42c0-2.03-0.65-5-3.67-5c-2.18,0-3.31,2.07-3.26,1.75v-1.53c0-0.27-0.13-0.43-0.27-0.43
		c-0.52,0-0.63,0.86-2.52,1.35c-0.11,0.03-0.37,0.09-0.38,0.29c0,0.56,1.52-0.61,1.53,1.47v6.64c0,1.43-1.13,1.43-1.33,1.45
		c-0.08,0-0.17,0-0.27,0c-0.48-0.05-1.31-0.26-1.31-1.16v-9.61c0-0.27-0.14-0.43-0.27-0.43c-0.52,0-0.85,0.94-2.29,1.42
		c-0.11,0.03-0.32,0.05-0.32,0.21c0,0.56,1.29-0.53,1.24,1.47v6.32c0.05,1.54-0.75,1.75-1.25,1.77c-0.6-0.07-1.06-0.32-1.06-1.23
		v-4.47c0-2.3-0.88-5.27-3.76-5.27c-1.28,0-2.38,0.71-3.24,1.67v-7.69c0-0.27-0.14-0.42-0.27-0.43c-0.35-0.02-0.93,1.04-2.57,1.41
		c-0.11,0.03-0.53,0.06-0.53,0.22c0,0.56,1.7-0.27,1.73,1.47v13.12c0,1.31-1.12,1.13-1.33,1.55c-0.03,0.18,0.07,0.27,0.23,0.27
		c0.36,0,1.35-0.11,2.05-0.11c0.7,0,1.82,0.11,2.29,0.11c0.27,0,0.38-0.05,0.38-0.37c-0.23-0.46-1.98,0.24-1.98-2.06v-5.65
		c0-1.36,1.62-2.41,2.63-2.41c0.79,0,2.72,0.62,2.72,3.94v4.9c0,0.96-1.02,1.06-1.1,1.37c0,0.21,0.13,0.29,0.36,0.29
		c0.25,0,0.97-0.11,1.84-0.11c0.49,0,0.93,0.03,1.31,0.05c0.2,0.04,0.49,0.04,0.85,0.05c0.25,0,0.86-0.09,1.58-0.09
		c0.71,0,1.28,0.06,1.73,0.09c0.09,0.01,0.17,0.01,0.26,0.01c0.03,0,0.07,0,0.1,0c0,0,0,0,0.01,0c0.27,0,0.53,0,0.64,0
		c0.27,0,0.72-0.11,1.91-0.11c1.3,0,1.75,0.11,2.14,0.11c0.34,0,0.73-0.15,0.49-0.37c-0.36-0.35-1.98,0.05-1.98-1.79v-6.16
		c-0.02-0.43,0.76-2.09,2.65-2.09c1.82,0,2.63,2.01,2.63,3.35v5c0,1.74-0.7,1.34-0.97,1.74c-0.15,0.22,0.11,0.32,0.4,0.32
		c0.29,0,0.76-0.11,1.62-0.11c0.81,0,1.33,0.06,1.66,0.09c-0.25,0.36-0.42,0.78-0.45,1.22c-0.12,2.18,2.55,2.96,4.79,2.93
		c4.44-0.06,5.71-3.15,4.78-4.78c-0.95-1.69-2.98-1.62-4.93-1.61c-3.65,0.01-2.96-2.25-1.47-2.16c0.34,0.02,0.18,0.12,1.36,0.12
		c2.11,0,4.14-1.44,4.08-3.8c0-0.2,0.05-0.89-0.46-1.86c0.99,0,0.6,0,2.09,0l-0.01,6.62c0,2.99,1.42,3.5,2.49,3.5
		c1.52,0,2.62-1,2.81-1.46c0.89,0.95,2.14,1.46,3.58,1.46c2.77,0,4.86-2.55,4.86-5.89C119.8,23.71,116.63,22.71,114.92,22.71z
		 M98.64,33.66c0.18-0.01,0.23,0.07,2.29,0.15c2.13,0.05,2.9,0.67,3.03,1.22c0.23,0.97-0.46,3.06-3.52,2.86
		c-1.92-0.12-2.49-1.04-2.63-1.25C97.09,35.62,97.68,33.72,98.64,33.66z M100.39,29.69c-1.81,0-2.41-1.74-2.41-3.39
		c0-1.7,0.51-3.11,2.32-3.11c1.83,0,2.56,1.88,2.56,3.53C102.86,28.39,102.1,29.69,100.39,29.69z M115.14,33.87
		c-2.63,0-3.67-3.26-3.67-5.92c0-2.31,0.9-4.43,3.1-4.43c2.68,0,3.64,2.86,3.64,5.65C118.22,32.53,117.03,33.87,115.14,33.87z"/>
	<path d="M129.45,32.33v-4.41c0-2.03-0.65-5.01-3.67-5.01c-2.18,0-3.31,2.07-3.26,1.75v-1.54c0-0.27-0.14-0.43-0.27-0.43
		c-0.52,0-0.9,0.88-2.66,1.41c-0.11,0.03-0.44,0.03-0.45,0.23c0,0.56,1.77-0.73,1.74,1.47v6.64c0,1.74-1.17,1.32-1.44,1.78
		c-0.14,0.23,0.22,0.29,0.51,0.29c0.27,0,0.72-0.11,1.91-0.11c1.3,0,1.75,0.11,2.14,0.11c0.34,0,0.73-0.15,0.49-0.37
		c-0.36-0.35-1.98,0.05-1.98-1.79v-6.16c-0.02-0.43,0.76-2.09,2.65-2.09c1.82,0,2.63,2.01,2.63,3.35v5
		c-0.02,1.96-0.7,1.34-0.97,1.74c-0.15,0.22,0.11,0.32,0.4,0.32c0.29,0,0.77-0.11,1.62-0.11c1.1,0,1.58,0.1,1.88,0.1
		c0.23,0,0.63-0.17,0.38-0.38C130.56,33.66,129.44,34.36,129.45,32.33z"/>
	<path d="M82.84,21.89c0.29,0,0.92-1.04,0.92-1.36s-0.64-1.38-0.92-1.38c-0.26,0-0.92,1.1-0.92,1.38S82.57,21.89,82.84,21.89z"/>
	<path d="M67.81,27.92c-0.44-0.21-1.1-0.59-1.43-0.77c-1.41-0.77-1.97-1.28-2.01-2c-0.07-1.25,1-1.9,1.92-1.81
		c2.2-0.04,2.5,2.43,2.72,2.43c0.34,0,0.25-0.32,0.25-1.05c0-0.19,0.02-1.11-0.11-1.32c-0.27-0.41-1.83-0.64-2.21-0.64
		c-0.1,0-0.46-0.01-0.52-0.01c-0.11,0-0.25,0.01-0.25,0.01c-1.57-0.02-3.04,0.97-2.99,3.07c0.04,1.91,2.29,3.01,3.51,3.73
		c0.9,0.51,1.96,1,1.94,2.23c-0.02,1.4-1.1,2.33-2.27,2.25c-2.73-0.05-2.36-3.48-2.85-3.48c-0.34,0-0.27,0.86-0.27,1.32
		c0,0.44-0.01,0.85-0.01,1.19c-0.06,0.31-0.18,0.6-0.47,0.62c-1.08,0.06-0.82-1.65-0.82-2.56v-5.59c-0.05-1.71-1.34-2.82-3.29-2.82
		c-2.69,0-4.61,3.31-3.7,4.34c0.22,0.25,1.09-0.7,1.15-0.75c0.05-0.05,0.06-0.11,0.06-0.11c-0.01-1.13,0.84-2.56,2.06-2.68
		c1.39-0.14,2.08,0.9,2.08,2.3v1.82c-5.26,1.05-6.02,2.8-6.02,4.23c0,1.92,1.35,2.77,2.81,2.77c1.26,0,2.5-0.59,3.44-1.56
		c0.29,0.89,0.88,1.43,1.75,1.4c0.3-0.01,0.35,0.08,1.27-0.32c0.32-0.08,0.3-0.08,0.67-0.01c0.48,0.17,1.15,0.5,2.31,0.5
		c1.76,0.03,3.34-1.61,3.34-3.63C69.88,29.77,69.52,28.98,67.81,27.92z M60.49,31.68c0,1.43-1.45,2.19-2.26,2.19
		c-1.19,0-2.03-0.78-2.03-2.31c0-2.37,2.85-2.81,4.29-3.18V31.68z"/>
	<path d="M221.75,24.76c-0.65-0.32-1.61-0.9-2.08-1.18c-2.06-1.18-2.87-1.96-2.93-3.06c-0.1-1.92,1.77-3.05,3.11-2.91
		c1.7,0,3.1,1.03,3.68,3.24c0.06,0.23,0.27,0.77,0.49,0.77c0.19,0,0.23-0.18,0.21-0.39l-0.29-3.49c-0.02-0.28-0.11-0.36-0.23-0.36
		c-0.19,0-0.31,0.28-0.48,0.28c-0.27,0-0.96-0.97-3.3-0.95c-0.16,0-0.37,0.02-0.37,0.02c-2.28-0.04-4.43,1.48-4.36,4.69
		c0.06,2.93,3.34,4.6,5.11,5.72c1.31,0.78,2.68,2.04,2.64,3.43c-0.07,2.14-1.41,3.54-3.11,3.42c-3.98-0.07-3.44-5.32-4.16-5.32
		c-0.49,0-0.39,1.32-0.39,2.02c0,1.66-0.07,3.03,0.12,3.27c0.06,0.08,0.25,0.04,0.64,0.04c0.79,0,1.74,0.91,4.04,0.91
		c2.57,0.04,4.67-2.33,4.67-5.43C224.77,27.59,224.24,26.38,221.75,24.76z"/>
	<g>
		<path d="M347.55,21.89c0.29,0,0.92-1.04,0.92-1.36s-0.64-1.38-0.92-1.38c-0.26,0-0.92,1.1-0.92,1.38S347.29,21.89,347.55,21.89z"
			/>
		<path d="M359.55,32.33v-4.41c0-2.03-0.65-5.01-3.67-5.01c-2.18,0-3.31,2.07-3.26,1.75v-1.54c0-0.27-0.14-0.43-0.27-0.43
			c-0.52,0-0.9,0.88-2.66,1.41c-0.11,0.03-0.44,0.03-0.45,0.23c0,0.56,1.77-0.73,1.74,1.47v6.64c0,1.25-0.61,1.34-1.05,1.46
			c-0.03,0-0.05,0-0.08,0c-0.45-0.03-1.41-0.2-1.41-1.17v-9.61c0-0.27-0.13-0.43-0.27-0.43c-0.52,0-0.85,0.94-2.29,1.42
			c-0.11,0.03-0.32,0.05-0.32,0.21c0,0.56,1.29-0.53,1.24,1.47v6.32c0.05,1.62-0.83,1.77-1.32,1.77c-0.73-0.01-0.55,0.08-0.55,0.31
			c0.02,0.27,0.46,0.29,1.18,0.29c0.25,0,0.86-0.09,1.58-0.09c0.92,0,1.62,0.11,2.09,0.11c0.27,0,1-0.11,2.19-0.11
			c1.31,0,1.76,0.11,2.14,0.11c0.34,0,0.73-0.15,0.5-0.37c-0.36-0.35-1.98,0.05-1.98-1.79v-6.16c-0.02-0.43,0.76-2.09,2.65-2.09
			c1.82,0,2.63,2.01,2.63,3.35v5c-0.02,1.96-0.7,1.34-0.97,1.74c-0.15,0.22,0.11,0.32,0.4,0.32c0.29,0,0.77-0.11,1.62-0.11
			c1.1,0,1.58,0.1,1.88,0.1c0.23,0,0.63-0.17,0.38-0.38C360.66,33.66,359.54,34.36,359.55,32.33z"/>
	</g>
	<g>
		<g>
			<path d="M373.74,21.89c0.29,0,0.92-1.04,0.92-1.36s-0.64-1.38-0.92-1.38c-0.26,0-0.92,1.1-0.92,1.38S373.47,21.89,373.74,21.89z"
				/>
			<path d="M385.74,32.33v-4.41c0-2.03-0.65-5.01-3.67-5.01c-2.18,0-3.31,2.07-3.26,1.75v-1.54c0-0.27-0.14-0.43-0.27-0.43
				c-0.52,0-0.9,0.88-2.66,1.41c-0.11,0.03-0.44,0.03-0.45,0.23c0,0.56,1.77-0.73,1.74,1.47v6.64c0,1.25-0.61,1.34-1.05,1.46
				c-0.03,0-0.05,0-0.08,0c-0.45-0.03-1.41-0.2-1.41-1.17v-9.61c0-0.27-0.13-0.43-0.27-0.43c-0.52,0-0.85,0.94-2.29,1.42
				c-0.11,0.03-0.32,0.05-0.32,0.21c0,0.56,1.29-0.53,1.24,1.47v6.32c0.05,1.62-0.83,1.77-1.32,1.77c-0.73-0.01-0.55,0.08-0.55,0.31
				c0.02,0.27,0.46,0.29,1.18,0.29c0.25,0,0.86-0.09,1.58-0.09c0.92,0,1.62,0.11,2.09,0.11c0.27,0,1-0.11,2.19-0.11
				c1.31,0,1.76,0.11,2.14,0.11c0.34,0,0.73-0.15,0.5-0.37c-0.36-0.35-1.98,0.05-1.98-1.79v-6.16c-0.02-0.43,0.76-2.09,2.65-2.09
				c1.82,0,2.63,2.01,2.63,3.35v5c-0.02,1.96-0.7,1.34-0.97,1.74c-0.15,0.22,0.11,0.32,0.4,0.32c0.29,0,0.77-0.11,1.62-0.11
				c1.1,0,1.58,0.1,1.88,0.1c0.23,0,0.63-0.17,0.38-0.38C386.84,33.66,385.72,34.36,385.74,32.33z"/>
		</g>
		<path d="M407.78,31.85c-0.27,0-0.93,1.12-0.93,1.41c0,0.29,0.67,1.39,0.93,1.39c0.29,0,0.93-1.07,0.93-1.39
			C408.72,32.94,408.07,31.85,407.78,31.85z"/>
		<path d="M437.05,32.81v-9.41c0-0.53-0.3-0.67-0.38-0.67c-0.34,0-0.53,0.08-0.76,0.14c-0.23,0.08-0.51,0.21-1.12,0.21
			c-0.11,0-0.69-0.1-0.66,0.22c0.04,0.32,1.36,0.13,1.37,1.07v6.8c-0.1,1.19-1.1,2.5-2.31,2.5c-0.28,0-2.08-0.2-2.06-3.17v-7.09
			c0-0.53-0.3-0.67-0.38-0.67c-0.34,0-0.53,0.08-0.76,0.14c-0.23,0.08-0.53,0.19-1.14,0.17c-0.33-0.01-0.69-0.06-0.63,0.25
			c0.05,0.28,1.38,0,1.38,1.07v6.53c0,2.38,1.4,3.75,3.09,3.75c1.12,0,2.16-0.24,2.82-1.56h0.04v1.14c0,0.11,0.02,0.42,0.19,0.42
			c0.32,0,0.49-0.26,0.72-0.35c0.25-0.06,0.32-0.29,1.11-0.36c0.34-0.03,0.71-0.21,0.71-0.43
			C438.16,33.03,437.05,33.54,437.05,32.81z"/>
		<path d="M423.78,22.71c-2.83,0-5.02,2.85-5.02,6.19c0,1.5,0.36,2.74,0.98,3.67c-0.69,0.49-1.94,0.96-4.31,0.96
			c-1.85,0-1.68-0.64-1.68-2.21V18.76c0-2.32,1.73-1.64,1.77-2.06c0.02-0.29-0.24-0.23-0.53-0.23c-0.33,0-0.93,0.13-2.18,0.13
			c-1.08,0-2.03-0.1-2.5-0.1c-0.29,0-0.55,0.08-0.45,0.3c0.22,0.49,1.85,0.05,1.85,1.43v13.11c0,1.25,0.19,2.05-0.39,2.37
			c-0.7,0.43-1.53,0.45-1.46,0.72c0.04,0.17,0.39,0.18,0.59,0.18c0.88,0,2.1-0.11,2.99-0.13c1.68-0.05,3.35,0.11,5.03,0.11
			c0.97,0,1.22-0.2,1.92-1.15c0.01-0.02,0.02-0.03,0.03-0.04c0.87,0.82,2.03,1.25,3.36,1.25c2.77,0,4.86-2.55,4.86-5.89
			C428.66,23.71,425.49,22.71,423.78,22.71z M424,33.87c-2.63,0-3.67-3.26-3.67-5.92c0-2.31,0.9-4.43,3.1-4.43
			c2.68,0,3.64,2.86,3.64,5.65C427.08,32.53,425.89,33.87,424,33.87z"/>
		<path d="M396.18,24.76c-0.65-0.32-1.61-0.9-2.08-1.18c-2.06-1.18-2.87-1.96-2.93-3.06c-0.1-1.92,1.77-3.05,3.11-2.91
			c1.7,0,3.1,1.03,3.68,3.24c0.06,0.23,0.27,0.77,0.49,0.77c0.19,0,0.23-0.18,0.21-0.39l-0.29-3.49c-0.02-0.28-0.11-0.36-0.23-0.36
			c-0.19,0-0.31,0.28-0.48,0.28c-0.27,0-0.96-0.97-3.3-0.95c-0.16,0-0.37,0.02-0.37,0.02c-2.28-0.04-4.43,1.48-4.36,4.69
			c0.06,2.93,3.34,4.6,5.11,5.72c1.31,0.78,2.68,2.04,2.64,3.43c-0.07,2.14-1.41,3.54-3.11,3.42c-3.98-0.07-3.44-5.32-4.16-5.32
			c-0.49,0-0.39,1.32-0.39,2.02c0,1.66-0.07,3.03,0.12,3.27c0.06,0.08,0.25,0.04,0.64,0.04c0.79,0,1.74,0.91,4.04,0.91
			c2.57,0.04,4.67-2.33,4.67-5.43C399.2,27.59,398.67,26.38,396.18,24.76z"/>
		<path d="M441.07,21.89c0.29,0,0.92-1.04,0.92-1.36s-0.64-1.38-0.92-1.38c-0.26,0-0.92,1.1-0.92,1.38S440.8,21.89,441.07,21.89z"/>
		<path d="M443.36,33.9c-0.45-0.03-1.41-0.2-1.41-1.17v-9.61c0-0.27-0.14-0.43-0.27-0.43c-0.52,0-0.85,0.94-2.29,1.42
			c-0.11,0.03-0.32,0.05-0.32,0.21c0,0.56,1.29-0.53,1.24,1.47v6.32c0.05,1.62-0.83,1.78-1.32,1.77c-0.51-0.01-0.55,0.08-0.55,0.31
			c0.02,0.27,0.46,0.29,1.18,0.29c0.25,0,0.86-0.09,1.58-0.09c0.92,0,1.62,0.11,2.09,0.11C443.59,34.5,443.95,33.8,443.36,33.9z"/>
		<path d="M448.54,27.92c-0.44-0.21-1.1-0.59-1.43-0.77c-1.41-0.77-1.97-1.28-2.01-2c-0.07-1.25,1-1.9,1.92-1.81
			c2.2-0.04,2.5,2.43,2.72,2.43c0.34,0,0.25-0.32,0.25-1.05c0-0.19,0.02-1.11-0.11-1.32c-0.27-0.4-1.83-0.64-2.21-0.64
			c-0.1,0-0.46-0.01-0.52-0.01c-0.11,0-0.25,0.01-0.25,0.01c-1.57-0.02-3.04,0.97-2.99,3.07c0.04,1.91,2.29,3.01,3.51,3.73
			c0.9,0.51,1.96,1,1.94,2.23c-0.02,1.4-1.1,2.33-2.27,2.25c-2.73-0.05-2.36-3.48-2.85-3.48c-0.34,0-0.27,0.86-0.27,1.32
			c0,1.08-0.05,1.98,0.08,2.14c0.04,0.05,0.17,0.02,0.44,0.02c0.54,0,1.2,0.6,2.77,0.6c1.76,0.03,3.34-1.61,3.34-3.63
			C450.61,29.77,450.25,28.98,448.54,27.92z"/>
		<path d="M406.23,32.85c-0.23,0.11-0.74,0.67-1.97,0.67c-0.93,0-1.46-0.55-1.51-1.74v-7.66c0,0,2.78-0.01,2.93-0.01
			c0.19,0,0.56-1.25,0.58-1.32c0.03-0.16,0.09-0.29,0.1-0.4c0.04-0.24-0.15-0.26-0.32-0.01c-0.14,0.13-0.28,0.48-0.86,0.48h-2.44
			c0-2.09,0.02-2.64-0.3-2.64c-0.31,0-0.26,0.08-0.55,1.02c-0.47,1.56-2.18,2.24-2.73,2.58c-0.13,0.07-0.13,0.09-0.13,0.17
			c-0.01,0.2,0.65,0.12,2.01,0.15l0,7.01c0,2.99,1.42,3.5,2.49,3.5c1.62,0,2.79-1.16,2.85-1.56
			C406.39,32.85,406.36,32.83,406.23,32.85z"/>
	</g>
	<path d="M179.35,31.89c-0.49,0-1.24,1.41-3.18,1.41c-1.37,0-3.63-1.33-3.63-5.78h5.99c0.52,0,0.77,0.03,0.77-0.46
		c0-1.08-1.22-4.3-3.99-4.3c-2.82,0-4.42,2.89-4.42,6.35c0,1.78,1.17,5.54,4.55,5.54c2.03,0,3.99-1.94,3.99-2.57
		C179.44,32,179.44,31.89,179.35,31.89z M174.94,23.38c1.24,0,2.5,1.35,2.5,2.86c0,0.41-0.13,0.54-0.45,0.54h-4.44
		C172.55,25.3,173.54,23.38,174.94,23.38z"/>
	<path d="M147.42,17.01c0.09-0.14-0.22-0.21-0.32-0.21c-0.36,0-1.19,0.09-1.56,0.09c-0.78,0-1.42-0.07-2.2-0.07
		c-0.06,0-0.4,0.04-0.4,0.16c-0.01,0.55,1.85-0.09,1.85,2.25v9.18c0,2.71-0.85,5.57-4.59,5.57c-2.68,0-4.14-1.68-4.14-5.36v-9.99
		c0-1.66,1.3-1.3,1.32-1.67c0.03-0.35-1.15-0.14-1.25-0.14c-0.62,0-1.05,0.06-1.69,0.06c-0.54,0-1.19-0.08-1.7-0.08
		c-0.1,0-0.47-0.02-0.53,0.13c-0.2,0.49,1.66,0.23,1.66,1.59v9.48c0,3.54,0.99,7.01,6.22,6.92c6.2-0.1,6.08-5.68,6.08-6.81v-8.86
		C146.18,17.13,147.22,17.33,147.42,17.01z"/>
	<path d="M171.9,23.3c0.15-0.18,0.2-0.46-0.5-0.4c-0.38,0-0.67,0.07-1.06,0.07c-0.49,0-0.59-0.02-1.06-0.03
		c-0.59-0.02-0.75,0.04-0.72,0.22c0.1,0.53,1.34,0.01,1.18,1.56c-0.14,1.3-0.56,2.42-0.99,3.53l-1.51,4.01l-2.21-6.68
		c-0.27-0.83-0.38-1.28-0.38-1.36c0-0.84,1.01-0.64,1.23-1c0.14-0.22-0.15-0.34-0.47-0.34c-0.27,0-0.58,0.09-1.41,0.11
		c-0.69,0.02-1.18,0.01-1.48-0.04c-0.78-0.14-0.71,0.29-0.44,0.42c0.27,0.13,0.4,0.01,0.79,1.17l3.4,9.6
		c0.07,0.19,0.16,0.67,0.45,0.67c0.34,0,0.34-0.33,0.77-1.47c0,0,3.25-9.1,3.48-9.43C171.41,23.27,171.74,23.49,171.9,23.3z"/>
	<path d="M184.46,22.86c-0.92,0-1.57,1.11-2.03,1.88h-0.04v-1.67c0-0.26-0.13-0.42-0.26-0.42c-0.35,0-0.62,0.71-2.49,1.15
		c-0.11,0.03-0.42,0.09-0.42,0.25c0,0.56,1.58-0.17,1.58,1.67v7.01c0,1.08-1.12,0.98-1.12,1.54c0,0.16,0.07,0.24,0.24,0.24
		c0.15,0,0.55-0.11,2.02-0.11c1.23,0,1.75,0.11,2.06,0.11c0.24,0,0.35-0.05,0.35-0.29c0-0.85-1.95,0.42-1.95-2.04V26.2
		c0-0.34,0.53-1.56,1.42-1.56c0.79,0,0.89,0.61,1.3,0.61c0.26,0,0.79-0.79,0.79-1.19C185.9,23.55,184.92,22.86,184.46,22.86z"/>
	<path d="M212.73,22.95c-0.23,0-0.84,0.04-1.38,0.04c-0.66,0-0.98-0.08-1.26-0.08c-0.42,0-0.83,0-0.76,0.28
		c0.08,0.31,1.5,0.2,1.5,1.75c0,0.2,0,0.46-0.28,1.49l-1.81,5.76l-2.51-7.08c0,0-0.12-0.23-0.12-0.69c0-1.14,1.34-1.02,1.39-1.22
		c0.04-0.17-0.18-0.34-0.54-0.34c-0.38,0-0.93,0-1.76,0c-0.13,0-0.25,0-0.37,0c0,0,0,0,0-0.01h-1.01c-0.01,0-0.02,0.01-0.04,0.01
		h-2.44c0-2.09,0.02-2.64-0.3-2.64c-0.31,0-0.26,0.09-0.55,1.02c-0.47,1.56-2.18,2.24-2.73,2.58c-0.13,0.07-0.13,0.09-0.13,0.17
		c-0.01,0.2,0.65,0.12,2.01,0.15l-0.01,7.01c0,2.99,1.42,3.5,2.49,3.5c1.63,0,2.79-1.15,2.85-1.56c0-0.23-0.03-0.25-0.16-0.23
		c-0.23,0.11-0.74,0.67-1.97,0.67c-0.93,0-1.46-0.55-1.51-1.74v-7.66c0,0,2.17-0.01,2.78-0.01c0.03,0.05,0.07,0.11,0.09,0.17
		l2.6,7.34c0.21,0.6,0.34,0.8,0.59,1.86c0.17,0.69,0.11,1.31,0.11,1.31c-0.25,1.1-0.93,1.74-1.96,3.77c-0.1,0.2,1.49-0.02,1.57-0.04
		c0.13-0.04,0.11-0.08,0.27-0.36l1.15-3.42l3.21-9.85c0.47-1.72,1.21-1.41,1.33-1.64C213.12,23.09,213.01,22.95,212.73,22.95z"/>
	<polygon points="208.58,34.56 208.52,34.73 208.51,34.77 	"/>
	<path d="M195.77,21.89c0.29,0,0.92-1.04,0.92-1.36s-0.64-1.38-0.92-1.38c-0.26,0-0.92,1.1-0.92,1.38S195.5,21.89,195.77,21.89z"/>
	<path d="M198.06,33.9c-0.45-0.03-1.41-0.2-1.41-1.17v-9.61c0-0.27-0.14-0.43-0.27-0.43c-0.52,0-0.85,0.94-2.29,1.42
		c-0.11,0.03-0.32,0.05-0.32,0.21c0,0.56,1.29-0.53,1.24,1.47v6.32c0.05,1.62-0.83,1.77-1.32,1.77c-0.73-0.01-0.55,0.08-0.55,0.31
		c0.02,0.27,0.46,0.29,1.18,0.29c0.25,0,0.86-0.09,1.58-0.09c0.92,0,1.62,0.11,2.09,0.11C198.29,34.5,198.65,33.8,198.06,33.9z"/>
	<path d="M319.15,31.89c-0.49,0-1.24,1.41-3.18,1.41c-1.37,0-3.63-1.33-3.63-5.78h5.99c0.52,0,0.77,0.03,0.77-0.46
		c0-1.08-1.22-4.3-3.99-4.3c-2.82,0-4.42,2.89-4.42,6.35c0,1.78,1.17,5.54,4.55,5.54c2.03,0,3.99-1.94,3.99-2.57
		C319.24,32,319.24,31.89,319.15,31.89z M314.73,23.38c1.24,0,2.5,1.35,2.5,2.86c0,0.41-0.13,0.54-0.45,0.54h-4.44
		C312.35,25.3,313.34,23.38,314.73,23.38z"/>
	<path d="M368.98,31.89c-0.49,0-1.24,1.41-3.18,1.41c-1.37,0-3.63-1.33-3.63-5.78h5.99c0.52,0,0.77,0.03,0.77-0.46
		c0-1.08-1.22-4.3-3.99-4.3c-2.82,0-4.42,2.89-4.42,6.35c0,1.78,1.17,5.54,4.55,5.54c2.03,0,3.99-1.94,3.99-2.57
		C369.08,32,369.08,31.89,368.98,31.89z M364.57,23.38c1.24,0,2.5,1.35,2.5,2.86c0,0.41-0.13,0.54-0.45,0.54h-4.44
		C362.18,25.3,363.17,23.38,364.57,23.38z"/>
	<g>
		<path d="M333.76,21.89c0.29,0,0.92-1.04,0.92-1.36s-0.64-1.38-0.92-1.38c-0.26,0-0.92,1.1-0.92,1.38S333.49,21.89,333.76,21.89z"
			/>
		<path d="M336.05,33.9c-0.45-0.03-1.41-0.2-1.41-1.17v-9.61c0-0.27-0.14-0.43-0.27-0.43c-0.52,0-0.85,0.94-2.29,1.42
			c-0.11,0.03-0.32,0.05-0.32,0.21c0,0.56,1.29-0.53,1.24,1.47v6.32c0.05,1.62-0.83,1.78-1.32,1.77c-0.27-0.01-0.55,0.08-0.55,0.31
			c0.02,0.27,0.46,0.29,1.18,0.29c0.25,0,0.86-0.09,1.58-0.09c0.92,0,1.62,0.11,2.09,0.11C336.28,34.5,336.64,33.8,336.05,33.9z"/>
	</g>
	<path d="M160.21,21.89c0.29,0,0.92-1.04,0.92-1.36s-0.64-1.38-0.92-1.38c-0.26,0-0.92,1.1-0.92,1.38S159.95,21.89,160.21,21.89z"/>
	<path d="M162.5,33.9c-0.45-0.03-1.41-0.2-1.41-1.17v-9.61c0-0.27-0.13-0.43-0.27-0.43c-0.52,0-0.85,0.94-2.29,1.42
		c-0.11,0.03-0.32,0.05-0.32,0.21c0,0.56,1.29-0.53,1.24,1.47v6.32c0.05,1.62-0.83,1.77-1.32,1.77c-0.06,0-0.11,0-0.16,0
		c-0.47-0.08-0.91-0.28-0.91-1.56v-4.41c0-2.03-0.65-5.01-3.67-5.01c-2.18,0-3.31,2.07-3.26,1.75v-1.54c0-0.27-0.14-0.43-0.27-0.43
		c-0.52,0-0.9,0.88-2.66,1.41c-0.11,0.03-0.44,0.03-0.45,0.23c0,0.56,1.77-0.73,1.74,1.47v6.64c0,1.74-1.17,1.32-1.44,1.78
		c-0.14,0.23,0.22,0.29,0.51,0.29c0.27,0,0.72-0.11,1.91-0.11c1.3,0,1.75,0.11,2.14,0.11c0.34,0,0.73-0.15,0.5-0.37
		c-0.36-0.35-1.98,0.05-1.98-1.79v-6.16c-0.02-0.43,0.76-2.09,2.65-2.09c1.82,0,2.63,2.01,2.63,3.35v5
		c-0.02,1.96-0.7,1.34-0.97,1.74c-0.15,0.22,0.11,0.32,0.4,0.32c0.29,0,0.77-0.11,1.62-0.11c1.1,0,1.58,0.1,1.88,0.1
		c0.03,0,0.07,0,0.11-0.01c0.1,0,0.19,0.01,0.3,0.01c0.25,0,0.86-0.09,1.58-0.09c0.92,0,1.62,0.11,2.09,0.11
		C162.73,34.5,163.09,33.8,162.5,33.9z"/>
	<path d="M190.92,27.91c-0.44-0.21-1.1-0.59-1.43-0.77c-1.41-0.77-1.97-1.28-2.01-2c-0.07-1.25,1-1.9,1.92-1.81
		c2.2-0.04,2.5,2.43,2.72,2.43c0.34,0,0.25-0.32,0.25-1.05c0-0.19,0.02-1.11-0.11-1.32c-0.27-0.4-1.83-0.64-2.21-0.64
		c-0.1,0-0.46-0.01-0.52-0.01c-0.11,0-0.24,0.01-0.24,0.01c-1.57-0.03-3.04,0.97-2.99,3.07c0.04,1.91,2.29,3.01,3.51,3.73
		c0.9,0.51,1.96,1,1.94,2.23c-0.02,1.4-1.1,2.33-2.27,2.25c-2.73-0.05-2.36-3.48-2.85-3.48c-0.34,0-0.27,0.86-0.27,1.32
		c0,1.09-0.05,1.98,0.08,2.14c0.04,0.05,0.17,0.02,0.44,0.02c0.54,0,1.2,0.6,2.77,0.6c1.76,0.03,3.34-1.61,3.34-3.63
		C192.99,29.76,192.62,28.97,190.92,27.91z"/>
	<path d="M245.7,34.49c-0.01,0,0.3,0.02,0.2-0.3c-0.06-0.19-0.42-0.27-0.83-0.31c-0.57-0.05-1-0.34-1-1.22v-4.47
		c0-2.3-0.88-5.27-3.76-5.27c-1.28,0-2.38,0.71-3.24,1.67v-7.69c0-0.27-0.14-0.42-0.27-0.43c-0.35-0.02-0.93,1.04-2.57,1.41
		c-0.11,0.03-0.53,0.06-0.53,0.22c0,0.56,1.7-0.27,1.73,1.47v13.12c0,1.31-1.12,1.13-1.33,1.55c-0.03,0.18,0.07,0.27,0.23,0.27
		c0.36,0,1.35-0.11,2.05-0.11c0.7,0,1.82,0.11,2.29,0.11c0.27,0,0.38-0.05,0.38-0.37c-0.23-0.46-1.98,0.24-1.98-2.06v-5.65
		c0-1.36,1.62-2.41,2.63-2.41c0.79,0,2.72,0.62,2.72,3.94v4.9c0,0.96-1.02,1.06-1.1,1.37c0,0.21,0.13,0.29,0.36,0.29
		c0.25,0,0.97-0.11,1.84-0.11c0.49,0,0.93,0.03,1.31,0.05C245.05,34.48,245.34,34.49,245.7,34.49"/>
	<path d="M273.2,32.59c0.13,0.18,0.37,0.52,0.68,0.81c0.87,0.82,2.03,1.25,3.36,1.25c2.77,0,4.86-2.55,4.86-5.89
		c0-5.05-3.17-6.05-4.88-6.05c-2.83,0-5.02,2.85-5.02,6.19c0,1.5,0.36,2.74,0.98,3.67 M277.45,33.87c-2.63,0-3.67-3.26-3.67-5.92
		c0-2.31,0.9-4.43,3.1-4.43c2.68,0,3.64,2.86,3.64,5.65C280.53,32.53,279.34,33.87,277.45,33.87z"/>
	<path d="M256.73,32.59c0.13,0.18,0.37,0.52,0.68,0.81c0.87,0.82,2.03,1.25,3.36,1.25c2.77,0,4.86-2.55,4.86-5.89
		c0-5.05-3.17-6.05-4.88-6.05c-2.83,0-5.02,2.85-5.02,6.19c0,1.5,0.36,2.74,0.98,3.67 M260.98,33.87c-2.63,0-3.67-3.26-3.67-5.92
		c0-2.31,0.9-4.43,3.1-4.43c2.68,0,3.64,2.86,3.64,5.65C264.06,32.53,262.87,33.87,260.98,33.87z"/>
	<path d="M246.17,32.59c0.13,0.18,0.37,0.52,0.68,0.81c0.87,0.82,2.03,1.25,3.36,1.25c2.77,0,4.86-2.55,4.86-5.89
		c0-5.05-3.17-6.05-4.88-6.05c-2.83,0-5.02,2.85-5.02,6.19c0,1.5,0.36,2.74,0.98,3.67 M250.42,33.87c-2.63,0-3.67-3.26-3.67-5.92
		c0-2.31,0.9-4.43,3.1-4.43c2.68,0,3.64,2.86,3.64,5.65C253.5,32.53,252.31,33.87,250.42,33.87z"/>
	<path d="M225.31,28.89c0-3.4,2.21-6.19,5.3-6.19c1.22,0,2.89,0.38,2.96,1.01c0.05,0.6,0.02,1.25,0.02,1.6
		c0,0.38-0.07,0.57-0.2,0.57c-0.24,0-0.51-0.52-0.59-0.62c-0.83-1.25-1.91-1.66-3.04-1.66c-2.08,0-2.68,2.39-2.68,4.35
		c0,2.93,1.36,5.35,4.12,5.35c1.91,0,2.99-1.58,3.36-1.58c0.07,0,0.2,0.08,0.2,0.16c0,0.44-1.47,2.77-4.82,2.77
		C227.13,34.65,225.31,31.91,225.31,28.89z"/>
	<path d="M335.96,28.89c0-3.4,2.21-6.19,5.3-6.19c1.22,0,2.89,0.38,2.96,1.01c0.05,0.6,0.02,1.25,0.02,1.6
		c0,0.38-0.07,0.57-0.2,0.57c-0.24,0-0.51-0.52-0.59-0.62c-0.83-1.25-1.91-1.66-3.04-1.66c-2.08,0-2.68,2.39-2.68,4.35
		c0,2.93,1.36,5.35,4.12,5.35c1.91,0,2.99-1.58,3.36-1.58c0.07,0,0.2,0.08,0.2,0.16c0,0.44-1.47,2.77-4.82,2.77
		C337.78,34.65,335.96,31.91,335.96,28.89z"/>
	<g>
		<path class="st0" d="M268.11,24.01v-7.04c0-0.28-0.14-0.45-0.29-0.45c-0.37-0.02-0.84,0.95-2.58,1.35
			c-0.12,0.03-0.57,0.07-0.57,0.24c0,0.6,1.81-0.28,1.84,1.56v12.8c0,1.39-1.19,1.21-1.41,1.65c-0.04,0.19,0.07,0.28,0.24,0.28
			c0.38,0,1.44-0.11,2.18-0.11c0.74,0,1.79,0.26,2.29,0.26c0.29,0,0.41-0.06,0.41-0.4c-0.25-0.49-2.1,0.26-2.1-2.19v-6"/>
	</g>
	<path d="M288.04,16.93c-2.13-0.01-3.15,1.11-3.83,2.33c-0.33,0.59-0.76,1.83-0.76,3.6h-1.29c0,0-0.01,0-0.03,0
		c-0.22,0-1.11,1.21-0.82,1.21l0.7,0h1.43l-0.01,8.67c0,1.32-1.33,0.99-1.33,1.57c0,0.22,0.3,0.17,0.44,0.17
		c0,0,1.28-0.21,2.09-0.21c0.81,0,1.84,0.21,1.84,0.21c0.22,0,0.58,0.08,0.58-0.25c0-0.61-1.96,0.06-1.96-1.71l0.01-8.45h1.83
		l0.64-0.01c0.12,0,0.22-0.22,0.29-0.36c0.2-0.38,0.55-1.01,0.55-1.09c0-0.08,0.02-0.35-0.11-0.35c-0.08,0-0.39,0.61-1.08,0.61
		h-2.12c0-1.49-0.04-1.83,0.03-2.65c0.11-1.29,0.67-2.11,1.74-2.14c1.74-0.04,1.49,1.16,1.88,1.16c0.3,0,0.41-1.2,0.41-1.72
		C289.17,17.04,288.39,16.93,288.04,16.93z"/>
	<path d="M309.48,32.28c0.12,2.15,1.89,1.2,1.89,2.1c0,0.26-0.31,0.26-0.58,0.26c-0.46,0-1.29-0.1-2.25-0.1
		c-0.74,0-1.51,0.1-2.11,0.1c-0.21,0-0.26-0.13-0.26-0.23c0-0.77,1.51-0.21,1.49-2.1l-0.24-9.94c0-0.64-0.12-1-0.26-1
		c-0.17,0-0.38,0.23-0.62,0.77l-4.96,10.81c-0.12,0.23-0.5,1.28-0.74,1.28c-0.24,0-0.41-0.56-0.48-0.74l-5.11-11.43
		c-0.07-0.2-0.19-0.28-0.29-0.28c-0.07,0-0.14,0.13-0.17,0.38l-0.29,8.99c-0.12,3.41,2.16,2.28,2.16,3.2c0,0.26-0.26,0.28-0.6,0.28
		c-0.31,0-1.39-0.1-2.11-0.1c-1.25,0-1.65,0.1-2.09,0.1c-0.17,0-0.24-0.13-0.24-0.31c0-0.87,1.53,0.18,1.7-2.49
		c0.29-4.18,0.57-6.89,0.57-9.61c0-6.02-2.28-4.59-2.28-5.46c0-0.23,0.19-0.28,0.41-0.28c0.43,0,0.86,0.1,1.32,0.1
		c0.43,0,0.86-0.1,1.3-0.1c0.34,0,0.38,0.44,0.5,0.72l5.71,13.02c0.26,0.54,0.36,0.77,0.53,0.77c0.12,0,0.36-0.54,0.74-1.38
		l5.71-12.25c0.14-0.28,0.34-0.9,0.62-0.87c0.24,0,1.01,0.1,1.13,0.1c0.55,0,0.77-0.1,1.15-0.1c0.14,0,0.24,0.15,0.24,0.31
		c0,0.82-1.92-0.28-1.82,2.77L309.48,32.28z"/>
	<path d="M328.01,19.77c0-1.63-2.01-0.92-2.01-1.49c0-0.16,0.1-0.27,0.23-0.3c1.96-0.49,2.62-1.49,3.2-1.49
		c0.15,0,0.3,0.16,0.3,0.43v16.12c0.01,0.39,0.07,0.34,0.9,0.36c0.18,0,0.43,0.02,0.41,0.23c-0.02,0.22-0.45,0.58-1.15,0.59
		c-0.66,0.01-1.37,0.47-1.6,0.47c-0.21,0-0.28-0.22-0.28-0.41v-1.49h-0.05c-0.86,1.17-2.26,1.9-3.74,1.9c-2.8,0-4.5-2.74-4.5-5.54
		c0-3.2,2.11-6.41,5.32-6.41c1.07,0,2.11,0.33,2.98,0.95V19.77z M328.01,26.52c0-2.01-1.53-3.15-3.36-3.15
		c-2.39,0-3.46,2.39-3.46,4.64c0,2.25,1.53,5.51,3.94,5.51c2.11,0,2.88-1.38,2.88-2.36V26.52z"/>
	<g>
		<path class="st1" d="M24.7,16.34L24.7,16.34L24.7,16.34L24.7,16.34L24.7,16.34c-0.08,0-3.83,0.04-9.09-1.05v15.13v0.03
			c0,0.24,0.01,0.41,0.01,0.41l0,0.01l0,0.01c0.03,0.7,0.24,1.26,0.66,1.74c0.28,0.3,0.66,0.61,1.2,0.9
			c0.15,0.08,0.31,0.16,0.48,0.24c0.13,0.06,0.27,0.12,0.41,0.18v0l0,0c0.11,0.05,0.48,0.21,0.6,0.25l5.73,2.17v0l0,0l0,0v0
			l5.73-2.17c0.12-0.05,0.49-0.21,0.6-0.25l0,0v0c0.14-0.06,0.28-0.12,0.41-0.18c0.17-0.08,0.33-0.16,0.48-0.24
			c0.54-0.3,0.92-0.61,1.2-0.9c0.42-0.48,0.63-1.04,0.66-1.74l0-0.01l0-0.01c0,0,0-0.17,0.01-0.41v-0.03V15.28
			C28.53,16.37,24.78,16.34,24.7,16.34z"/>
		<path class="st2" d="M24.7,17.24L24.7,17.24L24.7,17.24L24.7,17.24L24.7,17.24c-0.07,0-3.5,0.03-8.31-0.96v3.88
			c4.81,1,8.24,0.96,8.31,0.96v0l0,0l0,0v0c0.07,0,3.5,0.03,8.31-0.96v-3.88C28.2,17.27,24.77,17.24,24.7,17.24z"/>
		<path class="st3" d="M24.7,21.11L24.7,21.11L24.7,21.11L24.7,21.11L24.7,21.11c-0.07,0-3.5,0.03-8.31-0.96v4.73v3.88
			c4.81,1,8.24,0.96,8.31,0.96v0l0,0l0,0v0c0.07,0,3.5,0.03,8.31-0.96v-3.88v-4.73C28.2,21.15,24.77,21.12,24.7,21.11z"/>
		<path class="st2" d="M16.4,30.52l0,0.01c0.03,0.64,0.22,1.16,0.61,1.59c0.25,0.27,0.6,0.55,1.09,0.83
			c0.13,0.07,0.28,0.15,0.44,0.22c0.12,0.06,0.24,0.11,0.38,0.16v0l0,0c0.1,0.04,0.44,0.19,0.55,0.23l5.24,1.98v0l0,0l0,0v0
			l5.24-1.98c0.11-0.04,0.45-0.19,0.55-0.23l0,0v0c0.13-0.05,0.26-0.11,0.38-0.16c0.16-0.08,0.3-0.15,0.44-0.22
			c0.49-0.27,0.84-0.56,1.09-0.83c0.38-0.44,0.57-0.95,0.61-1.59l0-0.01l0-0.01c0,0,0-0.16,0.01-0.38v-0.03v-1.35
			c-4.81,1-8.24,0.96-8.31,0.96v0l0,0l0,0v0c-0.07,0-3.5,0.03-8.31-0.96v1.38c0,0.22,0.01,0.37,0.01,0.38L16.4,30.52z"/>
		<polygon class="st4" points="19.32,17.18 19.71,18.35 20.94,18.36 19.96,19.09 20.32,20.26 19.32,19.55 18.32,20.26 18.69,19.09 
			17.71,18.36 18.93,18.35 		"/>
		<polygon class="st4" points="30.08,17.18 30.47,18.35 31.7,18.36 30.71,19.09 31.08,20.26 30.08,19.55 29.08,20.26 29.45,19.09 
			28.46,18.36 29.69,18.35 		"/>
		<polygon class="st4" points="24.7,17.64 25.09,18.8 26.32,18.81 25.33,19.54 25.7,20.72 24.7,20 23.7,20.72 24.07,19.54 
			23.08,18.81 24.31,18.8 		"/>
		<g>
			<polygon class="st1" points="24.7,30.03 24.27,30.46 24.27,30.46 24.27,31.63 24.27,31.63 24.27,31.63 24.27,31.63 24.27,31.63 
				24.49,32.24 24.49,33.28 24.91,33.28 24.91,32.24 25.13,31.63 25.13,31.63 25.13,30.46 			"/>
			<polygon class="st1" points="24.91,34.22 24.91,33.6 24.49,33.6 24.49,34.22 24.27,34.63 24.7,35.16 25.13,34.63 			"/>
			<polygon class="st1" points="25.22,33.6 25.22,34.08 25.5,34.38 25.99,33.99 25.99,33.6 			"/>
			<polygon class="st1" points="25.74,31.67 25.22,32.24 25.22,33.28 25.64,33.28 25.64,32.67 26.05,32.22 26.05,32.22 26.57,32.56 
				26.9,32.22 26.9,31.67 			"/>
			<polygon class="st1" points="24.18,33.6 24.18,34.08 23.9,34.38 23.42,33.99 23.42,33.6 			"/>
			<polygon class="st1" points="23.66,31.67 24.18,32.24 24.18,33.28 23.76,33.28 23.76,32.67 23.35,32.22 23.35,32.22 22.84,32.56 
				22.5,32.22 22.5,31.67 			"/>
		</g>
		<g>
			<g>
				<polygon class="st2" points="28.66,22.48 28.66,27.42 25.34,27.42 25.11,27.62 24.7,27.97 24.29,27.62 24.06,27.42 20.74,27.42 
					20.74,22.48 20.04,23 20.04,28.12 23.95,28.12 24.29,28.41 24.7,28.77 25.11,28.41 25.45,28.12 29.36,28.12 29.36,23 				"/>
			</g>
			<g>
				<polygon class="st2" points="25.23,22.07 25.11,22.18 24.7,22.53 24.29,22.18 24.17,22.07 21.44,22.07 21.44,26.72 24.18,26.72 
					24.37,26.89 24.7,27.18 25.04,26.89 25.23,26.72 27.96,26.72 27.96,22.07 				"/>
			</g>
		</g>
		<g>
			<path class="st2" d="M30.08,23.51v3.15c0.9-0.13,1.88-0.3,2.93-0.52V23C31.96,23.22,30.98,23.38,30.08,23.51z"/>
			<path class="st2" d="M19.32,23.51c-0.9-0.13-1.88-0.3-2.93-0.52v3.15c1.05,0.22,2.03,0.39,2.93,0.52V23.51z"/>
		</g>
		<g>
			<polygon class="st1" points="30.08,29.61 29.78,29.91 29.78,29.91 29.78,30.73 29.78,30.73 29.78,30.73 29.78,30.73 29.78,30.73 
				29.93,31.16 29.93,31.89 30.23,31.89 30.23,31.16 30.38,30.73 30.38,30.73 30.38,29.91 			"/>
			<polygon class="st1" points="30.23,32.55 30.23,32.11 29.93,32.11 29.93,32.55 29.78,32.83 30.08,33.2 30.38,32.83 			"/>
			<polygon class="st1" points="30.44,32.11 30.44,32.45 30.64,32.66 30.98,32.38 30.98,32.11 			"/>
			<polygon class="st1" points="30.81,30.76 30.44,31.16 30.44,31.89 30.74,31.89 30.74,31.46 31.02,31.15 31.02,31.15 31.38,31.38 
				31.62,31.15 31.62,30.76 			"/>
			<polygon class="st1" points="29.71,32.11 29.71,32.45 29.52,32.66 29.18,32.38 29.18,32.11 			"/>
			<polygon class="st1" points="29.35,30.76 29.71,31.16 29.71,31.89 29.42,31.89 29.42,31.46 29.14,31.15 29.14,31.15 28.77,31.38 
				28.54,31.15 28.54,30.76 			"/>
		</g>
		<g>
			<polygon class="st1" points="19.32,29.61 19.02,29.91 19.02,29.91 19.02,30.73 19.02,30.73 19.02,30.73 19.02,30.73 19.02,30.73 
				19.18,31.16 19.18,31.89 19.47,31.89 19.47,31.16 19.62,30.73 19.62,30.73 19.62,29.91 			"/>
			<polygon class="st1" points="19.47,32.55 19.47,32.11 19.18,32.11 19.18,32.55 19.02,32.83 19.32,33.2 19.62,32.83 			"/>
			<polygon class="st1" points="19.69,32.11 19.69,32.45 19.88,32.66 20.22,32.38 20.22,32.11 			"/>
			<polygon class="st1" points="20.05,30.76 19.69,31.16 19.69,31.89 19.98,31.89 19.98,31.46 20.27,31.15 20.27,31.15 20.63,31.38 
				20.86,31.15 20.86,30.76 			"/>
			<polygon class="st1" points="18.96,32.11 18.96,32.45 18.76,32.66 18.42,32.38 18.42,32.11 			"/>
			<polygon class="st1" points="18.6,30.76 18.96,31.16 18.96,31.89 18.67,31.89 18.67,31.46 18.38,31.15 18.38,31.15 18.02,31.38 
				17.78,31.15 17.78,30.76 			"/>
		</g>
	</g>
</g>
</svg>
